<?xml version="1.0" encoding="utf-8"?>
<!-- Generator: Adobe Illustrator 16.0.0, SVG Export Plug-In . SVG Version: 6.00 Build 0)  -->
<!DOCTYPE svg PUBLIC "-//W3C//DTD SVG 1.1//EN" "http://www.w3.org/Graphics/SVG/1.1/DTD/svg11.dtd">
<svg version="1.1" id="Layer_1" xmlns="http://www.w3.org/2000/svg" xmlns:xlink="http://www.w3.org/1999/xlink" x="0px" y="0px"
	 width="16px" height="16px" viewBox="0 0 16 16" enable-background="new 0 0 16 16" xml:space="preserve">
<g>
	<path fill="#231F20" d="M8,0C3.6,0,0,3.6,0,8c0,4.4,3.6,8,8,8c4.4,0,8-3.6,8-8C16,3.6,12.4,0,8,0z M14.2,11.2L13,10.5l-0.2,0.3
		l1.2,0.6c-0.6,0.9-1.3,1.7-2.2,2.3L11,12.7l-0.3,0.2l0.7,1.1c-0.9,0.5-1.9,0.8-3,0.9v-1.3H7.6v1.3c-1.1-0.1-2.1-0.4-3-0.9l0.7-1.1
		L5,12.7l-0.7,1.1c-0.9-0.6-1.7-1.4-2.2-2.3l1.2-0.6L3,10.5l-1.2,0.6c-0.4-0.8-0.7-1.8-0.8-2.8h1.3V7.6H1.1c0.1-1,0.3-1.9,0.8-2.8
		L3,5.5l0.2-0.3L2,4.5c0.6-0.9,1.3-1.7,2.2-2.3L5,3.3l0.3-0.2L4.6,2c0.9-0.5,1.9-0.8,3-0.9v1.3h0.8V1.1c1.1,0.1,2.1,0.4,3,0.9
		l-0.7,1.2L11,3.3l0.7-1.2c0.9,0.6,1.7,1.4,2.2,2.3l-1.2,0.7L13,5.5l1.2-0.6c0.4,0.8,0.7,1.8,0.8,2.8h-1.3v0.8h1.3
		C14.9,9.4,14.6,10.4,14.2,11.2z"/>
	<path fill="#231F20" d="M8.2,7.7V3.2H7.8v4.4C7.6,7.7,7.5,7.9,7.5,8.2c0,0.3,0.2,0.5,0.5,0.5c0.2,0,0.4-0.1,0.5-0.3h3.3V7.8H8.4
		C8.3,7.7,8.3,7.7,8.2,7.7z"/>
</g>
</svg>
