<?xml version="1.0" encoding="utf-8"?>
<!-- Generator: Adobe Illustrator 16.0.0, SVG Export Plug-In . SVG Version: 6.00 Build 0)  -->
<!DOCTYPE svg PUBLIC "-//W3C//DTD SVG 1.1//EN" "http://www.w3.org/Graphics/SVG/1.1/DTD/svg11.dtd">
<svg version="1.1" id="Layer_1" xmlns="http://www.w3.org/2000/svg" xmlns:xlink="http://www.w3.org/1999/xlink" x="0px" y="0px"
	 width="16px" height="16px" viewBox="0 0 16 16" enable-background="new 0 0 16 16" xml:space="preserve">
<g>
	<path d="M14,4.9c-0.1-0.3-0.2-0.7-0.5-0.9l-3.4-3.4C9.8,0.3,9.4,0.1,9,0l0,0l0,0H3.8C2.8,0,2,0.8,2,1.8v12.4c0.1,1,0.9,1.7,1.8,1.7
		h8.3c1,0,1.8-0.8,1.8-1.8L14,4.9L14,4.9z M9.6,1.8l2.7,2.7h-2c-0.4,0-0.6-0.3-0.6-0.6V1.8H9.6z M12.8,14.3c0,0.3-0.3,0.6-0.6,0.6
		H3.8c-0.3,0-0.6-0.3-0.6-0.6V1.8c0-0.3,0.3-0.6,0.6-0.6h4.5v2.6c0,1,0.8,1.9,1.9,1.9h2.6V14.3z"/>
</g>
</svg>
