<?xml version="1.0" encoding="utf-8"?>
<!-- Generator: Adobe Illustrator 16.0.0, SVG Export Plug-In . SVG Version: 6.00 Build 0)  -->
<!DOCTYPE svg PUBLIC "-//W3C//DTD SVG 1.1//EN" "http://www.w3.org/Graphics/SVG/1.1/DTD/svg11.dtd">
<svg version="1.1" id="Layer_1" xmlns="http://www.w3.org/2000/svg" xmlns:xlink="http://www.w3.org/1999/xlink" x="0px" y="0px"
	 width="16px" height="16px" viewBox="0 0 16 16" enable-background="new 0 0 16 16" xml:space="preserve">
<g>
	<path d="M14.4,1.5c-2-2-5.3-2-7.4,0c-2,2-2,5.3,0,7.4c2,2,5.3,2,7.4,0C16.5,6.9,16.5,3.6,14.4,1.5z M13.3,7.8
		c-1.4,1.4-3.7,1.4-5.2,0C6.7,6.4,6.7,4,8.1,2.6c1.4-1.4,3.8-1.4,5.2,0S14.8,6.4,13.3,7.8z"/>
	<path d="M7,9.8L7,9.8C6.8,9.7,6.7,9.5,6.6,9.4C6.4,9.3,6.3,9.2,6.2,9.1l0,0C6.1,8.9,6,8.8,5.9,8.6c-0.2,0.3-0.2,0.6,0,0.9L5.4,9.9
		l0.7,0.7l0.4-0.4c0.1,0.1,0.3,0.1,0.4,0.1c0.2,0,0.3,0,0.5-0.1C7.3,10,7.1,9.9,7,9.8C7,9.8,7,9.8,7,9.8z"/>
	<path d="M0.4,14.1c-0.5,0.4-0.5,1.1,0,1.6c0.4,0.4,1.1,0.4,1.6,0l4-4.5l-1-1L0.4,14.1z"/>
</g>
</svg>
