<?xml version="1.0" encoding="utf-8"?>
<!-- Generator: Adobe Illustrator 16.0.0, SVG Export Plug-In . SVG Version: 6.00 Build 0)  -->
<!DOCTYPE svg PUBLIC "-//W3C//DTD SVG 1.1//EN" "http://www.w3.org/Graphics/SVG/1.1/DTD/svg11.dtd">
<svg version="1.1" id="Layer_1" xmlns="http://www.w3.org/2000/svg" xmlns:xlink="http://www.w3.org/1999/xlink" x="0px" y="0px"
	 width="16px" height="16px" viewBox="0 0 16 16" enable-background="new 0 0 16 16" xml:space="preserve">
<g>
	<path d="M15.9,0.7c-0.1-0.1-0.2-0.1-0.4-0.1L0.6,6.3C0.3,6.4,0.1,6.7,0,7.1C0,7.4,0.1,7.8,0.4,8l3.3,2.4l11.6-9.1L5,11.4l4.5,3.2
		c0.3,0.2,0.6,0.3,1,0.2c0.3-0.1,0.6-0.4,0.7-0.7L16,1C16,0.9,16,0.8,15.9,0.7z"/>
	<path d="M2.9,11.3l0.6,3.5c0,0.3,0.2,0.5,0.5,0.6c0.2,0.1,0.5,0.1,0.7-0.1c0.9-0.6,2-1.3,2-1.4l-3.9-2.8L2.9,11.3z"/>
</g>
</svg>
